<?xml version="1.0" standalone="no"?>
<!DOCTYPE svg PUBLIC "-//W3C//DTD SVG 1.0//EN" "http://www.w3.org/TR/2001/REC-SVG-20010904/DTD/svg10.dtd">
<svg xmlns="http://www.w3.org/2000/svg" xmlns:xlink="http://www.w3.org/1999/xlink" width="512" height="512">

<g transform="matrix(1.28 0 0 1.28 0 0)">
    <path transform="matrix(1 0 0 1 0 0)"  d="M0.223 3.516C 0.229 5.664 0.381 6.45 0.561 5.263C 0.74 4.075 0.735 2.317 0.55 1.356C 0.365 0.396 0.218 1.367 0.223 3.516M145.595 28.892C 126.835 33.81 104.944 54.024 95.268 75.363C 71.578 127.611 115.796 185.747 162.066 163.186C 188.441 150.326 201.39 114.264 194.152 73.832C 188.095 39.994 169.366 22.66 145.595 28.892M237.535 28.15C 203.002 35.387 190.102 105.83 216.129 145.04C 246.883 191.375 312.111 162.314 309.964 103.235C 308.527 63.696 268.066 21.752 237.535 28.15M57.813 126.845C 36.275 131.748 15.593 162.164 13.545 191.945C 10.808 231.771 50.428 264.745 82.265 249.137C 110.442 235.324 116.278 194.709 96.022 153.402C 85.758 132.472 72.765 123.441 57.813 126.845M329.861 126.582C 305.163 131.663 282.925 187.435 292.955 219.141C 307.246 264.31 360.073 264.247 380.573 219.037C 397.497 181.711 363.467 119.669 329.861 126.582M181.25 164.769C 150.225 171.607 126.754 191.431 114.748 220.939C 108.769 235.633 103.973 242.773 91.028 256.25C 73.534 274.464 69.105 283.892 69.19 302.734C 69.268 320.027 73.638 330.674 85.545 342.58C 102.144 359.18 121.412 362.915 155.078 356.059C 188.216 349.311 209.335 349.298 243.359 356.007C 283.678 363.957 308.341 356.104 322.643 330.762C 336.577 306.073 331.755 281.797 307.927 256.664C 296.604 244.722 289.473 234.438 285.153 223.821C 272.734 193.299 251.304 173.595 222.138 165.881C 211.579 163.088 191.37 162.538 181.25 164.769" stroke="none" fill="#B96D40" fill-rule="nonzero" />
</g>
</svg>